<?xml version="1.0" standalone="no"?>
<!DOCTYPE svg PUBLIC "-//W3C//DTD SVG 20010904//EN"
 "http://www.w3.org/TR/2001/REC-SVG-20010904/DTD/svg10.dtd">
<svg version="1.0" xmlns="http://www.w3.org/2000/svg"
 width="446.000000pt" height="476.000000pt" viewBox="0 0 446.000000 476.000000"
 preserveAspectRatio="xMidYMid meet">

<g transform="translate(0.000000,476.000000) scale(0.100000,-0.100000)"
fill="#000000" stroke="none">
<path d="M0 4168 c1 -518 2 -590 15 -573 8 11 18 25 22 31 13 17 43 73 98 184
62 124 76 155 120 276 60 165 79 189 240 296 61 41 123 86 139 101 16 15 33
27 38 27 11 0 27 42 21 57 -4 10 -10 10 -26 1 -12 -7 -25 -11 -30 -10 -4 1 -6
-1 -6 -5 4 -24 -2 -53 -12 -53 -5 0 -7 5 -4 10 3 6 1 10 -4 10 -6 0 -11 6 -11
14 0 8 -7 16 -15 20 -9 3 -15 0 -15 -9 0 -9 -6 -12 -16 -8 -9 3 -11 9 -6 12 5
3 12 17 15 31 6 25 87 115 121 135 11 6 15 16 11 28 -7 16 -33 17 -351 17
l-344 0 0 -592z m600 342 c0 -5 -4 -10 -10 -10 -5 0 -10 5 -10 10 0 6 5 10 10
10 6 0 10 -4 10 -10z"/>
<path d="M1960 4753 c-20 -8 -33 -19 -114 -94 -39 -36 -109 -90 -156 -120
-444 -280 -679 -694 -710 -1254 -5 -93 -5 -156 1 -167 7 -13 6 -23 -6 -34 -13
-14 -13 -18 0 -37 8 -12 15 -29 15 -38 0 -9 9 -23 19 -30 11 -8 22 -29 26 -46
7 -35 -4 -43 -25 -18 -19 23 -73 46 -132 55 -29 5 -69 13 -88 19 -175 52 -216
58 -333 55 -182 -4 -317 -34 -405 -90 l-52 -34 0 -421 0 -421 22 -19 c13 -10
27 -18 33 -19 5 0 24 -14 41 -31 18 -18 61 -50 96 -73 70 -46 84 -74 45 -95
-13 -7 -38 -34 -55 -61 -35 -53 -39 -65 -20 -54 8 4 9 3 5 -2 -5 -5 -16 -9
-25 -9 -17 0 -65 -80 -60 -97 3 -9 98 105 98 118 0 8 32 39 39 38 14 -3 31 9
31 23 0 8 5 11 10 8 6 -3 10 -1 10 4 0 20 29 11 35 -10 5 -15 10 -17 19 -10 7
6 15 9 18 6 3 -3 19 11 37 31 24 26 36 33 44 25 17 -17 30 -13 24 9 -7 29 12
25 23 -5 12 -30 21 -31 46 -4 15 17 27 20 58 16 21 -3 42 -11 46 -17 4 -6 11
-10 16 -9 23 4 44 -2 59 -18 12 -12 19 -13 24 -5 11 18 102 -2 171 -36 65 -33
170 -108 170 -122 0 -6 9 -10 20 -10 10 0 23 -6 27 -13 12 -19 69 -57 85 -57
21 0 48 -33 48 -58 0 -12 5 -22 10 -22 6 0 10 -8 10 -18 0 -18 18 -42 31 -42
4 0 5 10 2 21 -5 19 -4 20 16 10 11 -7 21 -15 21 -19 0 -5 28 -37 63 -71 37
-38 57 -65 50 -68 -21 -8 -15 -23 10 -23 27 -1 46 -15 77 -60 13 -19 46 -61
72 -93 27 -32 64 -93 84 -135 20 -42 39 -79 43 -82 13 -9 48 -64 78 -122 17
-32 34 -54 38 -50 5 4 5 -1 2 -11 -4 -10 2 -31 13 -50 11 -17 20 -39 20 -48 0
-9 7 -20 16 -23 10 -4 14 -12 10 -22 -3 -8 -1 -25 6 -37 6 -12 11 -34 10 -50
-1 -15 7 -46 18 -69 22 -46 26 -88 9 -88 -6 0 -9 -7 -5 -15 3 -8 1 -15 -4 -15
-9 0 -7 -43 5 -79 4 -14 1 -20 -12 -23 -29 -6 -64 3 -61 16 2 6 -1 13 -7 14
-5 2 -13 -14 -16 -35 -3 -21 -7 -30 -8 -20 0 9 -5 17 -11 17 -16 0 -12 50 5
56 22 9 18 34 -6 34 -11 0 -18 -4 -14 -9 3 -5 0 -13 -6 -17 -6 -3 -9 -18 -6
-33 3 -15 -1 -34 -9 -45 -8 -11 -14 -27 -14 -36 0 -15 -27 -101 -45 -142 -7
-17 37 -18 748 -18 l755 0 6 62 c7 70 -7 231 -28 323 -8 33 -20 89 -26 125 -6
36 -20 92 -31 125 -10 33 -36 119 -59 191 -22 72 -49 142 -60 156 -11 15 -20
33 -20 42 0 9 -9 39 -20 68 -11 29 -20 54 -20 55 0 2 97 11 185 18 161 12 334
49 455 97 41 16 104 41 139 54 91 34 220 108 288 166 32 26 93 75 135 108 94
73 167 161 215 257 32 65 37 71 49 55 11 -14 13 14 14 177 0 174 -2 192 -16
180 -8 -7 -22 -26 -31 -43 -8 -17 -41 -64 -72 -104 -31 -41 -66 -88 -79 -105
-58 -79 -220 -230 -239 -223 -7 3 -13 1 -13 -4 0 -13 -78 -52 -90 -45 -5 3
-12 -1 -17 -9 -10 -17 -113 -33 -113 -17 0 6 9 11 20 11 11 0 20 7 20 15 0 15
-11 18 -85 20 -22 0 -56 11 -75 23 -19 12 -45 22 -56 22 -12 0 -39 6 -61 14
-23 8 -46 11 -53 6 -8 -5 -22 -4 -33 2 -19 10 -98 20 -144 19 -11 0 -24 6 -27
15 -3 8 -10 13 -15 10 -18 -12 -19 37 0 77 25 55 24 112 -2 181 -41 107 -206
236 -319 250 -25 3 -67 12 -95 20 -267 79 -261 75 -415 223 -155 149 -318 407
-335 528 -11 81 -55 218 -78 243 -34 36 -76 52 -140 52 -69 0 -83 -11 -124
-98 l-25 -53 17 -142 c10 -78 24 -157 31 -176 8 -18 14 -41 14 -50 0 -9 16
-36 35 -61 19 -25 38 -50 42 -55 5 -6 29 -35 54 -65 25 -30 74 -89 107 -130
165 -203 201 -242 407 -435 48 -45 99 -85 109 -85 5 0 27 -15 50 -33 23 -18
58 -43 79 -56 27 -17 37 -29 37 -48 0 -18 4 -24 15 -19 8 3 31 -4 51 -16 28
-16 34 -26 32 -46 -3 -22 3 -27 42 -40 85 -28 87 -29 86 -54 -1 -13 1 -28 5
-33 9 -12 -11 -106 -26 -121 -6 -6 -20 -16 -33 -23 -12 -6 -22 -19 -22 -27 0
-8 -5 -12 -10 -9 -6 4 -18 1 -26 -6 -11 -9 -18 -9 -22 -2 -4 6 -18 14 -32 18
-33 10 -70 44 -70 66 0 22 -20 38 -61 45 -19 4 -38 13 -42 21 -6 10 -12 11
-21 3 -8 -5 -40 -12 -73 -14 l-60 -3 -12 33 c-7 18 -23 42 -37 53 -13 10 -24
28 -24 40 0 12 -6 21 -15 21 -8 0 -15 5 -15 10 0 6 -11 8 -24 6 -28 -5 -39 18
-22 45 6 11 6 29 0 50 l-10 34 -60 -3 c-33 -2 -66 -10 -75 -18 -8 -8 -20 -14
-25 -14 -9 0 -54 61 -54 74 0 6 -9 19 -37 51 -7 7 -13 18 -13 24 0 6 -4 11 -9
11 -13 0 -93 85 -109 116 -11 20 -19 24 -47 21 -53 -6 -138 16 -150 39 -6 10
-19 32 -29 47 -15 22 -17 30 -7 37 9 5 11 18 6 40 -5 25 -9 29 -17 19 -10 -15
-5 31 7 62 9 23 -26 35 -41 15 -6 -9 -15 -16 -20 -16 -4 0 -3 5 4 12 17 17 15
25 -9 31 -17 5 -20 11 -17 31 3 14 1 24 -5 23 -5 -1 -14 14 -19 33 -5 19 -14
39 -19 44 -14 15 -11 29 6 22 9 -3 15 0 15 9 0 8 -4 15 -10 15 -5 0 -10 7 -10
15 0 9 -6 12 -15 9 -10 -4 -15 0 -15 10 0 9 -7 19 -15 22 -8 4 -15 12 -15 20
0 7 -8 17 -17 22 -13 8 -16 22 -14 61 2 51 2 51 -23 41 -24 -9 -25 -8 -19 20
3 19 1 30 -6 30 -6 0 -11 6 -11 14 0 8 -9 17 -19 21 -20 6 -36 33 -26 44 3 3
10 -1 15 -9 14 -23 23 -4 13 27 -6 18 -5 46 2 78 11 50 11 50 54 52 48 3 83
19 79 36 -3 19 14 61 21 50 10 -16 51 -26 51 -13 0 19 -21 52 -47 74 -25 21
-26 27 -28 164 -2 78 0 142 3 142 4 0 8 11 8 25 1 14 -3 25 -8 25 -7 0 -6 5 1
13 6 8 8 16 5 19 -11 12 -5 145 10 200 17 67 42 122 62 139 8 6 28 12 46 13
37 2 50 25 19 33 -12 3 -21 7 -21 9 0 10 44 74 51 74 5 0 9 7 9 15 0 8 4 15 8
15 12 0 28 52 26 85 -1 17 -2 40 -3 53 0 13 -5 20 -11 17 -11 -7 -7 22 11 80
10 32 62 95 79 95 5 0 10 4 10 9 0 5 8 11 18 14 9 4 35 13 57 21 22 9 63 19
90 22 28 4 55 10 60 14 12 9 60 19 145 29 36 5 101 13 145 19 234 33 443 39
565 17 52 -9 104 -20 115 -24 147 -58 185 -76 265 -127 65 -42 151 -120 266
-244 179 -191 368 -349 464 -386 152 -60 317 -153 386 -219 l49 -46 3 31 c2
23 -10 52 -46 113 -28 45 -49 83 -48 83 0 1 22 -1 49 -5 l47 -8 0 449 0 448
-264 0 -264 0 -7 -57 c-18 -138 -2 -373 25 -373 4 0 10 -6 13 -14 3 -8 -37 15
-89 50 -52 35 -100 64 -107 64 -7 0 -19 9 -27 20 -8 11 -21 20 -29 20 -8 0
-33 16 -57 35 -23 19 -51 35 -62 35 -10 0 -27 9 -37 20 -21 23 -112 70 -136
70 -9 0 -22 7 -29 15 -7 8 -18 15 -25 15 -28 0 -70 31 -85 62 l-15 33 -645 2
c-355 1 -652 -1 -660 -4z m-320 -663 c0 -5 -4 -10 -10 -10 -5 0 -10 5 -10 10
0 6 5 10 10 10 6 0 10 -4 10 -10z m630 -2200 c12 -8 9 -10 -12 -10 -16 0 -28
5 -28 10 0 13 20 13 40 0z"/>
<path d="M746 4721 c-10 -11 -25 -17 -36 -14 -14 4 -22 -2 -30 -22 -19 -49
-12 -60 17 -31 15 15 33 24 41 21 8 -3 21 3 29 15 19 27 47 27 38 0 -8 -26 7
-26 23 0 10 17 8 21 -18 35 -37 19 -43 19 -64 -4z"/>
<path d="M2635 4136 c-77 -29 -135 -117 -135 -204 0 -54 43 -154 82 -189 13
-13 52 -34 86 -48 73 -30 120 -26 192 13 60 33 77 49 107 100 22 36 25 51 20
94 -8 67 -40 129 -92 182 -35 35 -54 45 -101 54 -69 14 -119 14 -159 -2z"/>
<path d="M2226 3963 c-12 -106 -1 -164 44 -231 46 -69 77 -102 93 -102 7 0 26
-7 42 -16 229 -122 337 -144 516 -103 80 18 109 29 131 51 16 15 27 28 26 28
-2 0 -32 -9 -68 -20 -35 -11 -96 -20 -135 -21 -131 -3 -199 1 -209 11 -5 5
-20 10 -33 10 -31 0 -122 44 -219 106 -130 83 -162 134 -173 274 l-7 85 -8
-72z"/>
<path d="M3203 3749 c-24 -9 -30 -24 -14 -33 9 -6 48 31 40 38 -2 2 -14 0 -26
-5z"/>
<path d="M2540 3413 c-51 -10 -96 -59 -124 -133 -32 -88 -33 -131 -1 -195 13
-27 25 -58 25 -68 0 -9 4 -25 9 -35 6 -9 24 -47 40 -83 33 -70 76 -115 192
-193 35 -24 63 -48 62 -53 -1 -5 27 -20 63 -33 54 -19 78 -22 134 -17 80 7
113 21 162 73 53 54 72 131 66 270 -3 71 -10 121 -21 144 -8 19 -18 47 -22 63
-12 59 -232 237 -294 237 -9 0 -22 5 -28 11 -11 11 -219 20 -263 12z"/>
<path d="M1697 3334 c-4 -4 -7 -17 -7 -28 0 -19 1 -19 17 -3 12 11 14 20 7 27
-6 6 -13 7 -17 4z"/>
<path d="M3755 3268 c-116 -42 -206 -155 -205 -257 1 -70 115 -213 201 -250
60 -27 143 -36 197 -22 65 18 167 118 187 184 8 28 15 61 15 74 0 34 -36 131
-64 172 -51 77 -237 133 -331 99z"/>
<path d="M1607 3236 c-6 -15 1 -26 15 -26 11 0 10 27 -1 34 -5 3 -11 0 -14 -8z"/>
<path d="M3378 3074 c-16 -25 16 -173 41 -194 3 -3 15 -23 26 -44 21 -42 75
-114 75 -101 0 5 10 -3 23 -17 12 -14 51 -42 87 -63 36 -22 76 -49 90 -61 54
-47 177 -85 276 -85 74 0 145 9 154 20 3 3 38 28 77 55 68 46 114 86 99 86 -3
0 -33 -18 -66 -40 -100 -69 -230 -94 -352 -69 -72 16 -175 64 -182 86 -3 11
-27 26 -56 36 -104 37 -237 210 -275 357 -6 24 -14 40 -17 34z"/>
<path d="M1900 2710 c0 -5 5 -10 10 -10 6 0 10 5 10 10 0 6 -4 10 -10 10 -5 0
-10 -4 -10 -10z"/>
<path d="M3166 2515 c-3 -10 8 -20 37 -33 23 -11 45 -17 50 -15 16 9 5 33 -23
48 -37 19 -56 19 -64 0z"/>
<path d="M4095 2410 c3 -5 8 -10 11 -10 2 0 4 5 4 10 0 6 -5 10 -11 10 -5 0
-7 -4 -4 -10z"/>
<path d="M2346 1922 c-7 -12 4 -52 15 -52 12 0 27 33 22 48 -5 14 -29 16 -37
4z"/>
<path d="M3956 1777 c3 -10 9 -15 12 -12 3 3 0 11 -7 18 -10 9 -11 8 -5 -6z"/>
<path d="M3881 1761 c-22 -4 -37 -13 -42 -27 -6 -18 -4 -21 12 -17 10 3 17 9
14 13 -3 5 -1 11 5 15 5 3 10 1 10 -6 0 -9 4 -9 15 1 8 6 18 9 23 6 5 -3 9 1
9 9 0 8 -3 14 -6 14 -3 -1 -21 -4 -40 -8z"/>
<path d="M245 1750 c-3 -5 -1 -10 4 -10 6 0 11 5 11 10 0 6 -2 10 -4 10 -3 0
-8 -4 -11 -10z"/>
<path d="M1347 1353 c8 -21 44 -63 56 -63 4 0 7 7 7 15 0 8 -4 15 -9 15 -5 0
-11 10 -13 23 -2 14 -11 23 -25 25 -18 3 -22 0 -16 -15z"/>
<path d="M1105 1340 c3 -5 8 -10 11 -10 2 0 4 5 4 10 0 6 -5 10 -11 10 -5 0
-7 -4 -4 -10z"/>
<path d="M0 850 c0 -48 32 -170 45 -170 6 0 21 -10 32 -22 34 -37 72 -66 78
-60 3 3 5 0 5 -6 0 -6 9 -14 20 -17 12 -4 29 -15 39 -26 15 -17 57 -27 136
-33 12 0 32 -8 46 -18 26 -17 49 -22 84 -18 13 1 7 6 -20 16 -22 8 -44 19 -49
24 -6 6 -22 10 -37 10 -15 0 -31 5 -35 11 -3 6 -27 20 -52 30 -26 11 -49 23
-52 27 -3 4 -24 20 -48 35 -23 15 -52 35 -63 45 -33 27 -88 109 -109 160 l-19
47 -1 -35z"/>
<path d="M1025 781 c-3 -5 -1 -12 5 -16 5 -3 10 1 10 9 0 18 -6 21 -15 7z"/>
<path d="M610 523 c-8 -3 -23 -14 -33 -24 -16 -17 -16 -19 -1 -19 16 0 84 37
84 46 0 6 -32 4 -50 -3z"/>
<path d="M1860 321 c0 -6 5 -13 10 -16 6 -3 10 1 10 9 0 9 -4 16 -10 16 -5 0
-10 -4 -10 -9z"/>
<path d="M680 239 c0 -23 36 -79 51 -79 17 0 9 37 -11 55 -11 10 -20 24 -20
32 0 7 -4 13 -10 13 -5 0 -10 -9 -10 -21z"/>
</g>
</svg>
